#!OML:ASF X:\für Bonn\!DataBase\2005_08_10_Bjorn_Final\c3d\bjorn.ASF
:FULLY-SPECIFIED
:DEGREES
33
root -0.0571942 19.1037 3.69297 -180.458 -17.3378 179.255
lowerback -0.255527 2.78833 -1.17606
upperback 11.4796 2.83914 -0.593162
thorax 12.459 0.841274 0.220401
lowerneck -9.06566 -3.27409 -2.84828
upperneck 12.9091 -3.77817 -3.62569
head 5.36967 -2.32883 -0.95032
rclavicle -3.8763e-015 -1.05356e-014
rhumerus -36.1177 -31.1429 -73.8023
rradius 15.8722
rwrist 33.5533
rhand -4.3626 12.9338
rfingers 7.12502
rthumb 21.4057 -15.9037
lclavicle -3.8763e-015 -1.05356e-014
lhumerus -23.2353 -35.3129 74.8722
lradius 67.3419
lwrist -12.9922
lhand -31.9098 -20.4
lfingers 7.12502
lthumb -5.16164 9.51718
rfemur -13.6781 -10.6608 17.5038
rtibia 40.7166
rfoot -22.5691 -11.738
rtoes -34.0386
lfemur -12.1245 3.32687 -21.5551
ltibia 31.9504
lfoot -11.6984 -15.3451
ltoes 8.88038
34
root -0.0573882 19.1103 3.71479 -180.71 -17.6205 179.22
lowerback 0.169774 2.80973 -1.37246
upperback 11.7438 2.81472 -0.65135
thorax 12.5011 0.78515 0.245527
lowerneck -9.22062 -3.28061 -2.73379
upperneck 12.4119 -3.78108 -3.65283
head 5.23786 -2.30907 -0.971904
rclavicle 5.86415e-014 -2.31584e-014
rhumerus -35.9749 -30.253 -74.4017
rradius 15.951
rwrist 33.0809
rhand -4.29283 12.8828
rfingers 7.12502
rthumb 21.4727 -15.9471
lclavicle 5.86415e-014 -2.31584e-014
lhumerus -22.9786 -35.0849 74.4816
lradius 67.2793
lwrist -14.1294
lhand -31.9465 -20.527
lfingers 7.12502
lthumb -5.19708 9.3893
rfemur -14.3789 -9.7386 17.3726
rtibia 42.3741
rfoot -21.7269 -12.3833
rtoes -34.2472
lfemur -11.7689 3.24604 -21.6123
ltibia 31.6549
lfoot -11.4609 -15.5107
ltoes 8.71834
35
root -0.0552756 19.1158 3.73761 -181.029 -18.0059 179.238
lowerback 0.69349 2.80829 -1.51631
upperback 11.9916 2.75003 -0.709823
thorax 12.4672 0.71538 0.233849
lowerneck -9.33482 -3.30122 -2.67572
upperneck 11.9348 -3.81287 -3.56087
head 5.10892 -2.29864 -0.949094
rclavicle 1.88845e-015 -3.37934e-015
rhumerus -35.9415 -29.454 -74.9472
rradius 16.0697
rwrist 32.6088
rhand -4.24687 12.7452
rfingers 7.12502
rthumb 21.5169 -16.0797
lclavicle 1.88845e-015 -3.37934e-015
lhumerus -22.6099 -34.8946 74.0397
lradius 67.1622
lwrist -15.1471
lhand -32.0989 -20.6602
lfingers 7.12502
lthumb -5.34423 9.25245
rfemur -15.071 -8.82339 17.2986
rtibia 44.1263
rfoot -20.6147 -13.0238
rtoes -33.9379
lfemur -11.3775 3.11928 -21.5969
ltibia 31.3782
lfoot -11.1428 -15.7575
ltoes 9.03557
36
root -0.0508706 19.1217 3.76135 -181.377 -18.4752 179.253
lowerback 1.27728 2.77093 -1.7073
upperback 12.2295 2.63186 -0.744555
thorax 12.3827 0.613023 0.267816
lowerneck -9.39883 -3.31142 -2.64283
upperneck 11.424 -3.83161 -3.47596
head 4.96189 -2.28409 -0.922227
rclavicle 2.67365e-014 -3.04141e-014
rhumerus -35.9848 -28.6648 -75.4113
rradius 16.2502
rwrist 32.1534
rhand -4.22311 12.6102
rfingers 7.12502
rthumb 21.5397 -16.212
lclavicle 2.67365e-014 -3.04141e-014
lhumerus -22.196 -34.5478 73.6519
lradius 67.0424
lwrist -15.9938
lhand -32.2673 -20.8949
lfingers 7.12502
lthumb -5.50678 9.01358
rfemur -15.8096 -7.9654 17.2184
rtibia 45.9963
rfoot -19.4649 -13.4638
rtoes -32.9305
lfemur -10.9741 3.00665 -21.5725
ltibia 31.1233
lfoot -10.8066 -16.0823
ltoes 9.28276
37
root -0.044136 19.1264 3.78622 -181.733 -19.0335 179.309
lowerback 1.86579 2.70739 -1.866
upperback 12.4641 2.47336 -0.776774
thorax 12.2953 0.493994 0.284664
lowerneck -9.53999 -3.33765 -2.61635
upperneck 11.0243 -3.87079 -3.36281
head 4.86305 -2.28175 -0.890564
rclavicle -1.77912e-014 4.87022e-014
rhumerus -36.0254 -27.8766 -75.913
rradius 16.451
rwrist 31.6064
rhand -4.23507 12.366
rfingers 7.12502
rthumb 21.5282 -16.4575
lclavicle -1.77912e-014 4.87022e-014
lhumerus -21.6355 -34.0779 73.2406
lradius 66.9122
lwrist -16.6659
lhand -32.4163 -21.1995
lfingers 7.12502
lthumb -5.65063 8.70514
rfemur -16.641 -7.17211 17.1831
rtibia 47.993
rfoot -18.501 -13.6798
rtoes -31.9518
lfemur -10.6112 2.81701 -21.5089
ltibia 30.9072
lfoot -10.4844 -16.4189
ltoes 9.51703
38
root -0.0348026 19.1269 3.81139 -182.141 -19.6601 179.368
lowerback 2.50909 2.6344 -2.03448
upperback 12.7129 2.29325 -0.819228
thorax 12.1939 0.361227 0.294422
lowerneck -9.70615 -3.36685 -2.54416
upperneck 10.6739 -3.91959 -3.24697
head 4.78266 -2.28391 -0.867447
rclavicle 3.03147e-014 2.38542e-015
rhumerus -36.1089 -27.1691 -76.3891
rradius 16.6845
rwrist 31.1124
rhand -4.25406 12.1522
rfingers 7.12502
rthumb 21.51 -16.6735
lclavicle 3.03147e-014 2.38542e-015
lhumerus -20.906 -33.5449 72.751
lradius 66.8135
lwrist -17.1623
lhand -32.6236 -21.5684
lfingers 7.12502
lthumb -5.8508 8.33079
rfemur -17.5114 -6.48993 17.14
rtibia 50.1306
rfoot -17.5028 -13.6971
rtoes -31.4453
lfemur -10.2199 2.63269 -21.4257
ltibia 30.7326
lfoot -10.1774 -16.8276
ltoes 9.79576
39
root -0.02293 19.1263 3.83545 -182.562 -20.3255 179.47
lowerback 3.13011 2.54098 -2.22228
upperback 12.9794 2.07706 -0.817271
thorax 12.1277 0.203239 0.36321
lowerneck -9.95146 -3.39436 -2.54059
upperneck 10.3633 -3.95546 -3.11679
head 4.72978 -2.28387 -0.830446
rclavicle 6.97734e-014 -3.45885e-014
rhumerus -36.1341 -26.3194 -76.9079
rradius 16.9498
rwrist 30.4497
rhand -4.30923 11.9076
rfingers 7.12502
rthumb 21.457 -16.9241
lclavicle 6.97734e-014 -3.45885e-014
lhumerus -20.0018 -32.8848 72.2655
lradius 66.7727
lwrist -17.4693
lhand -32.8391 -21.9811
lfingers 7.12502
lthumb -6.05888 7.91227
rfemur -18.4894 -5.90748 17.1291
rtibia 52.4064
rfoot -16.2668 -13.4149
rtoes -30.5307
lfemur -9.8471 2.41819 -21.3041
ltibia 30.5842
lfoot -9.8518 -17.2447
ltoes 10.0165
40
root -0.00774229 19.1236 3.85748 -183.021 -21.0171 179.567
lowerback 3.78921 2.44939 -2.46079
upperback 13.2395 1.859 -0.812767
thorax 12.0322 0.0377602 0.464893
lowerneck -10.182 -3.42737 -2.52652
upperneck 10.1072 -4.00244 -2.97782
head 4.69112 -2.29003 -0.793811
rclavicle 8.34896e-015 -3.33958e-014
rhumerus -36.2385 -25.6365 -77.3074
rradius 17.1954
rwrist 30.002
rhand -4.40577 11.7571
rfingers 7.12502
rthumb 21.3643 -17.0851
lclavicle 8.34896e-015 -3.33958e-014
lhumerus -19.0017 -32.1977 71.7441
lradius 66.8593
lwrist -17.6448
lhand -33.0981 -22.3636
lfingers 7.12502
lthumb -6.30893 7.52241
rfemur -19.5208 -5.36052 17.0906
rtibia 54.8189
rfoot -14.9029 -12.8382
rtoes -29.0264
lfemur -9.43657 2.2583 -21.1787
ltibia 30.4369
lfoot -9.49574 -17.7227
ltoes 10.3835
41
root 0.00820728 19.1247 3.87911 -183.491 -21.7568 179.686
lowerback 4.40241 2.34266 -2.68658
upperback 13.5479 1.60873 -0.806557
thorax 12.0278 -0.148755 0.561956
lowerneck -10.5051 -3.46147 -2.54488
upperneck 9.8724 -4.04731 -2.78444
head 4.67621 -2.29369 -0.737395
rclavicle -6.10269e-014 -1.03368e-014
rhumerus -36.2073 -24.935 -77.7719
rradius 17.4068
rwrist 29.4698
rhand -4.46431 11.674
rfingers 7.12502
rthumb 21.308 -17.1746
lclavicle -6.10269e-014 -1.03368e-014
lhumerus -17.7494 -31.4248 71.1262
lradius 67.0973
lwrist -17.6871
lhand -33.4037 -22.6644
lfingers 7.12502
lthumb -6.6039 7.21263
rfemur -20.6504 -4.84135 17.0415
rtibia 57.3526
rfoot -13.5967 -11.9872
rtoes -26.5708
lfemur -9.00019 2.08353 -21.0355
ltibia 30.232
lfoot -9.08344 -18.2287
ltoes 10.7429
